<?xml version="1.0" encoding="UTF-8" standalone="no"?>
<!DOCTYPE svg PUBLIC "-//W3C//DTD SVG 1.1//EN" "http://www.w3.org/Graphics/SVG/1.1/DTD/svg11.dtd">
<svg width="100%" height="100%" viewBox="0 0 24 24" version="1.1" xmlns="http://www.w3.org/2000/svg" xmlns:xlink="http://www.w3.org/1999/xlink" xml:space="preserve" xmlns:serif="http://www.serif.com/" style="fill-rule:evenodd;clip-rule:evenodd;stroke-linejoin:round;stroke-miterlimit:2;">
    <g transform="matrix(1,0,0,1,0,5.37498)">
        <path d="M22.216,12.7L1.316,12.7L1.316,10.7L6.143,10.7C6.497,7.76 8.884,5.5 11.767,5.5C14.649,5.5 17.036,7.76 17.39,10.7L22.216,10.7L22.216,12.7ZM6.788,4.84L5.078,3.05L3.739,4.46L5.439,6.25L6.788,4.84ZM19.794,4.46L18.454,3.05L16.754,4.84L18.093,6.25L19.794,4.46ZM12.717,3.5L10.816,3.5L10.816,0.55L12.717,0.55L12.717,3.5Z"/>
    </g>
</svg>
