<svg width="24" height="24" viewBox="0 0 24 24" fill="none" xmlns="http://www.w3.org/2000/svg">
<path fill-rule="evenodd" clip-rule="evenodd" d="M6.80699 5.29L5.02549 3.5L3.62997 4.91L5.40158 6.7L6.80699 5.29V5.29ZM4.07535 10.95H1.10617V12.95H4.07535V10.95V10.95ZM12.9829 1H11.0034V3.95H12.9829V1V1ZM20.3563 4.91L18.9608 3.5L17.1892 5.29L18.5847 6.7L20.3563 4.91V4.91ZM17.1793 18.61L18.9509 20.41L20.3464 19L18.5649 17.21L17.1793 18.61V18.61ZM19.911 10.95V12.95H22.8801V10.95H19.911V10.95ZM11.9932 5.95C8.71717 5.95 6.0548 8.64 6.0548 11.95C6.0548 15.26 8.71717 17.95 11.9932 17.95C15.2692 17.95 17.9315 15.26 17.9315 11.95C17.9315 8.64 15.2692 5.95 11.9932 5.95V5.95ZM11.0034 22.9H12.9829V19.95H11.0034V22.9V22.9ZM3.62997 18.99L5.02549 20.4L6.7971 18.6L5.40158 17.19L3.62997 18.99V18.99Z" fill="#FBFBFB"/>
</svg>
